<?xml version="1.0" standalone="no"?><!DOCTYPE svg PUBLIC "-//W3C//DTD SVG 1.1//EN" "http://www.w3.org/Graphics/SVG/1.1/DTD/svg11.dtd"><svg width="100%" height="100%" viewBox="0 0 1190 347" version="1.1" xmlns="http://www.w3.org/2000/svg" xmlns:xlink="http://www.w3.org/1999/xlink" xml:space="preserve" style="fill-rule:evenodd;clip-rule:evenodd;stroke-linejoin:round;stroke-miterlimit:1.41421;"><g transform="matrix(0.75,0,0,0.75,24.9948,-3.02421)"><text x="367.938px" y="387.082px" style="font-family:PT Serif;font-size:288px;font-style:italic;fill:#00a2bc;">pre</text><text x="765.666px" y="387.082px" style="font-family:PT Serif;font-size:288px;font-style:italic;fill:#0083bc;">ﬂight</text></g><g><path d="M349.015,48.252l164.23,-48.252l-119.29,65.335l-44.94,-17.083Z" style="fill:#82d6f4;fill-rule:nonzero;"/><path d="M513.245,0l-119.29,65.335l19.156,40.819l100.134,-106.154Z" style="fill:#29abe2;fill-rule:nonzero;"/><path d="M513.245,0l-95.092,73.89l38.227,52.487l56.865,-126.377Z" style="fill:#82d6f4;fill-rule:nonzero;"/><path d="M413.111,106.154l5.042,-32.264l11.061,15.182l-16.103,17.082Z" style="fill:#0071bc;fill-rule:nonzero;"/><path d="M399.376,116.077l-1.971,-2.101l0.246,-0.23l0.229,-0.216l0.214,-0.202l0.198,-0.189l0.352,-0.337l0.289,-0.279l0.226,-0.22l0.161,-0.158l0.132,-0.13l2.026,2.048l-0.136,0.134l-0.17,0.167l-0.234,0.228l-0.298,0.287l-0.36,0.345l-0.204,0.194l-0.218,0.207l-0.234,0.22l-0.248,0.232Z" style="fill:#00a99d;"/><path d="M191.877,244.49l-0.415,-0.001l-0.415,-0.002l-0.416,-0.002l-0.417,-0.004l-0.417,-0.004l-0.418,-0.005l-0.073,-0.002l0.044,-2.88l0.069,0.001l0.412,0.005l0.41,0.005l0.41,0.003l0.41,0.003l0.409,0.001l0.408,0.001l0.408,0l0.407,-0.002l0.406,-0.002l0.406,-0.003l0.405,-0.004l0.405,-0.005l0.403,-0.006l0.385,-0.006l0.048,2.88l-0.387,0.006l-0.411,0.006l-0.411,0.005l-0.412,0.005l-0.412,0.003l-0.413,0.002l-0.414,0.001l-0.414,0.001ZM183.465,244.294l-0.425,-0.02l-0.427,-0.021l-0.428,-0.022l-0.428,-0.023l-0.429,-0.024l-0.43,-0.025l-0.43,-0.026l-0.431,-0.027l-0.431,-0.028l-0.432,-0.029l-0.433,-0.03l-0.433,-0.031l-0.434,-0.032l-0.239,-0.019l0.219,-2.872l0.236,0.018l0.427,0.031l0.427,0.031l0.426,0.03l0.425,0.028l0.425,0.028l0.425,0.026l0.424,0.026l0.423,0.025l0.422,0.023l0.422,0.023l0.422,0.022l0.421,0.02l0.421,0.02l-0.135,2.878ZM200.997,244.258l-0.15,-2.877l0.251,-0.013l0.393,-0.022l0.393,-0.022l0.392,-0.023l0.392,-0.024l0.391,-0.025l0.39,-0.026l0.39,-0.027l0.389,-0.028l0.388,-0.028l0.388,-0.029l0.387,-0.031l0.387,-0.031l0.385,-0.032l0.386,-0.033l0.032,-0.003l0.252,2.87l-0.036,0.003l-0.392,0.034l-0.392,0.032l-0.394,0.032l-0.394,0.031l-0.394,0.03l-0.396,0.029l-0.396,0.028l-0.396,0.027l-0.397,0.026l-0.398,0.026l-0.398,0.024l-0.399,0.024l-0.4,0.023l-0.4,0.021l-0.254,0.014ZM171.819,243.408l-0.076,-0.008l-0.442,-0.047l-0.443,-0.048l-0.443,-0.05l-0.444,-0.05l-0.444,-0.052l-0.445,-0.052l-0.446,-0.054l-0.446,-0.055l-0.447,-0.055l-0.447,-0.057l-0.448,-0.058l-0.448,-0.059l-0.379,-0.05l0.381,-2.856l0.376,0.051l0.442,0.058l0.442,0.057l0.441,0.056l0.44,0.054l0.44,0.054l0.44,0.053l0.438,0.052l0.439,0.051l0.437,0.05l0.437,0.048l0.437,0.048l0.436,0.047l0.073,0.007l-0.301,2.865ZM212.652,243.243l-0.356,-2.859l0.329,-0.041l0.375,-0.048l0.373,-0.048l0.373,-0.049l0.373,-0.05l0.371,-0.051l0.371,-0.052l0.371,-0.052l0.37,-0.054l0.369,-0.054l0.368,-0.055l0.368,-0.056l0.367,-0.057l0.367,-0.057l0.365,-0.058l0.178,-0.029l0.461,2.844l-0.181,0.029l-0.373,0.059l-0.374,0.059l-0.374,0.058l-0.375,0.057l-0.375,0.056l-0.376,0.055l-0.377,0.054l-0.377,0.054l-0.378,0.053l-0.379,0.051l-0.38,0.051l-0.379,0.05l-0.381,0.05l-0.381,0.048l-0.333,0.042ZM160.246,241.857l-0.181,-0.029l-0.456,-0.075l-0.458,-0.076l-0.457,-0.077l-0.458,-0.078l-0.459,-0.079l-0.459,-0.08l-0.46,-0.081l-0.461,-0.083l-0.461,-0.083l-0.461,-0.085l-0.462,-0.086l-0.462,-0.087l-0.056,-0.01l0.538,-2.83l0.052,0.01l0.457,0.085l0.456,0.085l0.455,0.084l0.455,0.082l0.454,0.081l0.454,0.081l0.454,0.079l0.452,0.078l0.453,0.077l0.451,0.076l0.452,0.075l0.45,0.074l0.178,0.029l-0.46,2.843ZM224.206,241.368l-0.573,-2.823l0.291,-0.059l0.354,-0.073l0.353,-0.073l0.353,-0.075l0.352,-0.075l0.351,-0.076l0.35,-0.077l0.35,-0.077l0.349,-0.079l0.349,-0.079l0.348,-0.079l0.347,-0.081l0.346,-0.081l0.346,-0.083l0.345,-0.083l0.344,-0.083l0.074,-0.018l0.687,2.797l-0.077,0.019l-0.351,0.086l-0.353,0.084l-0.352,0.084l-0.354,0.083l-0.354,0.082l-0.355,0.082l-0.356,0.081l-0.356,0.079l-0.357,0.08l-0.358,0.078l-0.358,0.077l-0.359,0.077l-0.359,0.076l-0.361,0.075l-0.361,0.074l-0.295,0.06ZM148.777,239.691l-0.287,-0.062l-0.47,-0.102l-0.471,-0.103l-0.471,-0.105l-0.471,-0.106l-0.472,-0.107l-0.473,-0.108l-0.473,-0.109l-0.473,-0.11l-0.474,-0.111l-0.475,-0.113l-0.475,-0.114l-0.203,-0.048l0.676,-2.801l0.2,0.048l0.469,0.113l0.469,0.111l0.469,0.11l0.468,0.109l0.467,0.108l0.467,0.106l0.466,0.106l0.466,0.104l0.465,0.104l0.465,0.102l0.464,0.101l0.284,0.061l-0.607,2.816ZM235.582,238.578l-0.802,-2.766l0.131,-0.038l0.332,-0.098l0.331,-0.098l0.331,-0.098l0.33,-0.099l0.329,-0.101l0.328,-0.1l0.328,-0.102l0.327,-0.102l0.327,-0.103l0.326,-0.104l0.325,-0.104l0.324,-0.105l0.323,-0.106l0.323,-0.107l0.323,-0.107l0.321,-0.108l0.112,-0.038l0.924,2.729l-0.115,0.039l-0.329,0.11l-0.329,0.11l-0.331,0.109l-0.33,0.108l-0.332,0.107l-0.332,0.107l-0.333,0.106l-0.334,0.105l-0.334,0.105l-0.335,0.103l-0.336,0.103l-0.336,0.103l-0.337,0.101l-0.338,0.101l-0.338,0.1l-0.339,0.099l-0.135,0.039ZM137.426,236.943l-0.207,-0.057l-0.389,-0.109l-0.389,-0.11l-0.388,-0.111l-0.389,-0.113l-0.388,-0.113l-0.387,-0.115l-0.388,-0.116l-0.387,-0.117l-0.387,-0.118l-0.386,-0.119l-0.387,-0.12l-0.386,-0.122l-0.385,-0.122l-0.369,-0.119l0.881,-2.742l0.365,0.117l0.377,0.12l0.378,0.119l0.379,0.118l0.378,0.116l0.379,0.116l0.379,0.114l0.379,0.114l0.38,0.112l0.38,0.111l0.38,0.11l0.38,0.109l0.381,0.108l0.381,0.106l0.202,0.056l-0.767,2.777ZM246.685,234.818l-1.046,-2.684l0.165,-0.064l0.308,-0.121l0.307,-0.122l0.307,-0.122l0.306,-0.123l0.305,-0.124l0.304,-0.125l0.304,-0.125l0.302,-0.125l0.303,-0.127l0.301,-0.127l0.301,-0.127l0.3,-0.129l0.299,-0.129l0.298,-0.129l0.298,-0.131l0.297,-0.131l0.285,-0.126l1.169,2.633l-0.288,0.128l-0.304,0.134l-0.305,0.133l-0.306,0.133l-0.307,0.132l-0.307,0.132l-0.308,0.13l-0.308,0.13l-0.31,0.13l-0.31,0.128l-0.31,0.128l-0.312,0.128l-0.312,0.127l-0.313,0.125l-0.314,0.126l-0.314,0.124l-0.315,0.124l-0.17,0.066ZM126.276,233.351l-0.221,-0.081l-0.38,-0.141l-0.38,-0.142l-0.38,-0.143l-0.379,-0.144l-0.379,-0.145l-0.378,-0.146l-0.379,-0.147l-0.378,-0.149l-0.377,-0.149l-0.378,-0.15l-0.377,-0.151l-0.376,-0.152l-0.376,-0.153l-0.315,-0.129l1.093,-2.666l0.311,0.128l0.369,0.15l0.37,0.15l0.37,0.148l0.37,0.147l0.371,0.147l0.371,0.145l0.371,0.145l0.372,0.143l0.372,0.142l0.372,0.142l0.372,0.14l0.373,0.139l0.373,0.139l0.217,0.08l-0.994,2.703ZM257.399,230.04l-1.298,-2.572l0.047,-0.024l0.282,-0.143l0.282,-0.144l0.281,-0.145l0.28,-0.145l0.279,-0.146l0.278,-0.147l0.278,-0.147l0.277,-0.148l0.277,-0.148l0.275,-0.149l0.275,-0.15l0.274,-0.15l0.273,-0.151l0.273,-0.151l0.271,-0.152l0.271,-0.152l0.271,-0.153l0.269,-0.154l0.024,-0.014l1.434,2.499l-0.027,0.015l-0.277,0.158l-0.277,0.157l-0.278,0.157l-0.279,0.156l-0.28,0.155l-0.28,0.155l-0.281,0.154l-0.282,0.153l-0.283,0.153l-0.283,0.152l-0.285,0.152l-0.285,0.151l-0.285,0.15l-0.287,0.15l-0.287,0.149l-0.288,0.148l-0.288,0.148l-0.29,0.147l-0.051,0.026ZM115.451,228.907l-0.286,-0.13l-0.37,-0.169l-0.37,-0.17l-0.369,-0.171l-0.37,-0.172l-0.368,-0.172l-0.369,-0.174l-0.368,-0.174l-0.367,-0.176l-0.368,-0.176l-0.367,-0.177l-0.366,-0.178l-0.366,-0.179l-0.366,-0.18l-0.213,-0.105l1.276,-2.582l0.21,0.103l0.36,0.177l0.36,0.176l0.361,0.175l0.361,0.174l0.361,0.174l0.361,0.172l0.362,0.172l0.363,0.17l0.362,0.17l0.363,0.169l0.364,0.168l0.363,0.168l0.364,0.166l0.283,0.128l-1.191,2.623ZM267.589,224.201l-1.561,-2.421l0.061,-0.039l0.254,-0.165l0.253,-0.165l0.253,-0.166l0.252,-0.167l0.251,-0.167l0.25,-0.168l0.25,-0.168l0.248,-0.169l0.248,-0.169l0.248,-0.17l0.246,-0.17l0.246,-0.171l0.244,-0.171l0.244,-0.172l0.244,-0.172l0.242,-0.173l0.242,-0.174l0.241,-0.174l0.198,-0.144l1.694,2.33l-0.202,0.147l-0.248,0.179l-0.249,0.178l-0.249,0.178l-0.25,0.178l-0.251,0.176l-0.252,0.177l-0.253,0.175l-0.253,0.175l-0.254,0.175l-0.255,0.174l-0.256,0.173l-0.256,0.173l-0.257,0.173l-0.258,0.171l-0.259,0.172l-0.26,0.17l-0.26,0.17l-0.261,0.17l-0.065,0.041ZM104.972,223.732l-0.032,-0.017l-0.359,-0.192l-0.36,-0.194l-0.358,-0.194l-0.359,-0.195l-0.358,-0.195l-0.357,-0.197l-0.357,-0.197l-0.357,-0.198l-0.356,-0.199l-0.356,-0.199l-0.356,-0.2l-0.355,-0.201l-0.355,-0.202l-0.354,-0.202l-0.084,-0.048l1.434,-2.499l0.081,0.047l0.349,0.199l0.35,0.199l0.35,0.198l0.35,0.197l0.351,0.197l0.351,0.195l0.352,0.196l0.352,0.194l0.352,0.193l0.352,0.193l0.353,0.192l0.354,0.191l0.354,0.191l0.354,0.19l0.029,0.015l-1.355,2.542ZM94.835,217.929l-0.156,-0.096l-0.347,-0.213l-0.347,-0.213l-0.347,-0.215l-0.346,-0.215l-0.346,-0.215l-0.345,-0.216l-0.345,-0.217l-0.344,-0.218l-0.344,-0.218l-0.344,-0.218l-0.343,-0.22l-0.343,-0.219l-0.342,-0.221l-0.301,-0.194l1.565,-2.419l0.298,0.193l0.338,0.217l0.338,0.217l0.339,0.217l0.339,0.216l0.34,0.215l0.339,0.214l0.341,0.214l0.341,0.214l0.341,0.212l0.341,0.213l0.342,0.211l0.343,0.211l0.343,0.21l0.153,0.094l-1.501,2.459ZM277.092,217.276l-1.83,-2.225l0.159,-0.131l0.223,-0.184l0.223,-0.186l0.222,-0.186l0.221,-0.186l0.22,-0.187l0.22,-0.187l0.218,-0.188l0.218,-0.188l0.217,-0.189l0.216,-0.189l0.216,-0.189l0.214,-0.19l0.214,-0.191l0.213,-0.191l0.212,-0.191l0.211,-0.192l0.211,-0.193l0.21,-0.192l0.209,-0.194l0.034,-0.031l1.962,2.108l-0.037,0.035l-0.216,0.2l-0.216,0.198l-0.217,0.199l-0.218,0.197l-0.219,0.198l-0.219,0.197l-0.221,0.196l-0.221,0.196l-0.222,0.195l-0.223,0.195l-0.223,0.195l-0.225,0.194l-0.225,0.193l-0.226,0.193l-0.227,0.193l-0.228,0.192l-0.228,0.191l-0.23,0.191l-0.23,0.191l-0.162,0.133ZM85.037,211.587l-0.254,-0.173l-0.334,-0.23l-0.334,-0.23l-0.333,-0.231l-0.333,-0.231l-0.333,-0.231l-0.332,-0.233l-0.331,-0.232l-0.331,-0.233l-0.331,-0.234l-0.33,-0.233l-0.329,-0.235l-0.33,-0.235l-0.328,-0.235l-0.212,-0.152l1.681,-2.34l0.21,0.151l0.325,0.233l0.325,0.232l0.326,0.232l0.326,0.231l0.327,0.231l0.327,0.23l0.328,0.23l0.328,0.229l0.328,0.229l0.329,0.228l0.33,0.228l0.33,0.228l0.33,0.226l0.252,0.173l-1.627,2.377ZM285.711,209.263l-2.091,-1.982l0.106,-0.111l0.191,-0.203l0.19,-0.203l0.189,-0.203l0.188,-0.204l0.188,-0.204l0.186,-0.205l0.186,-0.205l0.185,-0.205l0.184,-0.206l0.184,-0.206l0.182,-0.207l0.182,-0.207l0.181,-0.207l0.18,-0.208l0.179,-0.208l0.178,-0.209l0.177,-0.209l0.177,-0.209l0.176,-0.209l0.175,-0.211l0.02,-0.024l2.22,1.836l-0.024,0.028l-0.181,0.218l-0.181,0.216l-0.183,0.217l-0.183,0.216l-0.185,0.215l-0.185,0.216l-0.186,0.214l-0.187,0.215l-0.188,0.214l-0.188,0.213l-0.19,0.213l-0.19,0.213l-0.191,0.212l-0.192,0.212l-0.193,0.211l-0.194,0.212l-0.194,0.21l-0.196,0.21l-0.196,0.21l-0.197,0.209l-0.109,0.115ZM75.565,204.781l-0.282,-0.212l-0.32,-0.242l-0.32,-0.243l-0.319,-0.243l-0.319,-0.243l-0.318,-0.244l-0.317,-0.244l-0.317,-0.244l-0.317,-0.245l-0.316,-0.245l-0.316,-0.245l-0.315,-0.246l-0.314,-0.246l-0.314,-0.246l-0.213,-0.168l1.781,-2.264l0.212,0.166l0.31,0.244l0.312,0.244l0.311,0.243l0.313,0.243l0.312,0.242l0.314,0.242l0.313,0.242l0.315,0.241l0.314,0.242l0.316,0.24l0.315,0.241l0.317,0.24l0.316,0.239l0.28,0.212l-1.734,2.299ZM293.23,200.187l-2.341,-1.678l0.128,-0.179l0.155,-0.218l0.155,-0.218l0.153,-0.219l0.153,-0.219l0.152,-0.22l0.151,-0.22l0.15,-0.22l0.149,-0.22l0.149,-0.221l0.147,-0.221l0.147,-0.222l0.146,-0.221l0.145,-0.223l0.144,-0.222l0.143,-0.223l0.142,-0.223l0.142,-0.223l0.14,-0.224l0.14,-0.223l0.139,-0.225l0.085,-0.138l2.454,1.509l-0.087,0.142l-0.144,0.232l-0.145,0.233l-0.146,0.232l-0.147,0.231l-0.147,0.231l-0.149,0.231l-0.149,0.231l-0.151,0.23l-0.151,0.23l-0.152,0.23l-0.153,0.229l-0.154,0.229l-0.154,0.228l-0.156,0.228l-0.156,0.228l-0.158,0.228l-0.158,0.227l-0.159,0.226l-0.16,0.227l-0.161,0.226l-0.131,0.182ZM66.404,197.572l-0.5,-0.41l-0.608,-0.503l-0.606,-0.503l-0.604,-0.505l-0.601,-0.505l-0.6,-0.506l-0.597,-0.507l-0.351,-0.299l1.869,-2.192l0.349,0.297l0.591,0.502l0.594,0.501l0.596,0.501l0.598,0.499l0.6,0.499l0.602,0.498l0.497,0.408l-1.829,2.225ZM299.399,190.129l-2.562,-1.317l0.074,-0.143l0.117,-0.231l0.117,-0.231l0.116,-0.232l0.115,-0.232l0.114,-0.232l0.113,-0.232l0.113,-0.233l0.111,-0.232l0.111,-0.233l0.109,-0.233l0.109,-0.234l0.108,-0.233l0.106,-0.234l0.106,-0.235l0.105,-0.234l0.104,-0.236l0.103,-0.236l0.103,-0.236l0.101,-0.237l0.1,-0.237l0.1,-0.238l0.04,-0.095l2.661,1.102l-0.042,0.101l-0.104,0.248l-0.105,0.247l-0.105,0.248l-0.107,0.246l-0.108,0.246l-0.108,0.246l-0.11,0.245l-0.11,0.245l-0.112,0.244l-0.112,0.244l-0.113,0.244l-0.115,0.242l-0.114,0.243l-0.116,0.241l-0.117,0.242l-0.118,0.241l-0.119,0.242l-0.119,0.24l-0.12,0.241l-0.122,0.24l-0.122,0.24l-0.076,0.148ZM57.539,190.01l-0.523,-0.464l-0.574,-0.512l-0.572,-0.513l-0.57,-0.512l-0.567,-0.513l-0.565,-0.514l-0.562,-0.513l-0.39,-0.358l1.947,-2.123l0.387,0.356l0.558,0.509l0.56,0.508l0.562,0.509l0.565,0.508l0.567,0.508l0.569,0.508l0.521,0.462l-1.913,2.154ZM48.959,182.136l-0.306,-0.29l-0.538,-0.513l-0.535,-0.513l-0.533,-0.513l-0.531,-0.513l-0.528,-0.512l-0.525,-0.511l-0.523,-0.512l-0.171,-0.167l2.019,-2.056l0.168,0.166l0.519,0.507l0.521,0.508l0.524,0.508l0.526,0.508l0.529,0.509l0.531,0.508l0.533,0.51l0.304,0.288l-1.984,2.088ZM303.931,179.212l-2.742,-0.881l0.05,-0.155l0.078,-0.247l0.078,-0.248l0.076,-0.248l0.076,-0.249l0.075,-0.248l0.075,-0.25l0.073,-0.249l0.072,-0.25l0.072,-0.25l0.071,-0.25l0.07,-0.251l0.069,-0.251l0.068,-0.252l0.067,-0.251l0.067,-0.252l0.065,-0.253l0.065,-0.252l0.064,-0.253l0.063,-0.254l0.062,-0.253l0.062,-0.254l0.013,-0.057l2.803,0.668l-0.015,0.062l-0.064,0.263l-0.064,0.263l-0.066,0.263l-0.066,0.262l-0.068,0.263l-0.068,0.262l-0.069,0.261l-0.07,0.262l-0.07,0.261l-0.072,0.26l-0.073,0.261l-0.073,0.26l-0.075,0.26l-0.075,0.26l-0.076,0.259l-0.077,0.259l-0.078,0.258l-0.079,0.258l-0.08,0.258l-0.081,0.258l-0.081,0.257l-0.052,0.16ZM40.647,173.981l-0.297,-0.3l-0.497,-0.506l-0.494,-0.504l-0.491,-0.504l-0.489,-0.503l-0.486,-0.501l-0.483,-0.501l-0.481,-0.5l-0.339,-0.354l2.08,-1.993l0.337,0.352l0.477,0.496l0.48,0.497l0.482,0.498l0.485,0.499l0.488,0.5l0.491,0.501l0.493,0.501l0.294,0.299l-2.05,2.023ZM306.687,167.741l-2.842,-0.473l0.001,-0.007l0.042,-0.259l0.042,-0.26l0.04,-0.26l0.04,-0.26l0.039,-0.26l0.038,-0.26l0.038,-0.261l0.036,-0.261l0.036,-0.261l0.035,-0.261l0.034,-0.261l0.034,-0.262l0.032,-0.261l0.032,-0.262l0.031,-0.262l0.03,-0.262l0.029,-0.262l0.029,-0.262l0.027,-0.263l0.027,-0.263l0.026,-0.262l0.016,-0.159l2.867,0.276l-0.016,0.163l-0.027,0.272l-0.027,0.271l-0.029,0.271l-0.03,0.272l-0.03,0.271l-0.031,0.27l-0.032,0.271l-0.033,0.271l-0.033,0.27l-0.035,0.271l-0.035,0.27l-0.036,0.27l-0.037,0.27l-0.038,0.269l-0.039,0.27l-0.039,0.27l-0.041,0.269l-0.041,0.269l-0.042,0.269l-0.043,0.269l-0.043,0.268l-0.002,0.012ZM290.812,167.623l-0.071,-0.002l-0.293,-0.008l-0.294,-0.01l-0.293,-0.01l-0.294,-0.012l-0.293,-0.012l-0.294,-0.014l-0.293,-0.014l-0.294,-0.016l-0.293,-0.017l-0.294,-0.018l-0.293,-0.019l-0.294,-0.02l-0.293,-0.021l-0.294,-0.023l-0.293,-0.023l-0.294,-0.025l-0.293,-0.025l-0.294,-0.027l-0.293,-0.028l-0.246,-0.024l0.284,-2.867l0.24,0.024l0.282,0.027l0.283,0.025l0.282,0.025l0.283,0.024l0.283,0.022l0.283,0.022l0.282,0.02l0.283,0.02l0.283,0.018l0.283,0.017l0.283,0.017l0.283,0.015l0.283,0.014l0.283,0.013l0.283,0.012l0.283,0.011l0.283,0.01l0.283,0.009l0.283,0.008l0.066,0.002l-0.071,2.88ZM296.709,167.566l-0.128,-2.877l0.184,-0.009l0.283,-0.013l0.283,-0.015l0.283,-0.015l0.284,-0.016l0.283,-0.018l0.283,-0.018l0.283,-0.019l0.283,-0.02l0.282,-0.021l0.283,-0.022l0.283,-0.023l0.283,-0.023l0.283,-0.025l0.283,-0.025l0.282,-0.027l0.283,-0.027l0.283,-0.028l0.282,-0.029l0.283,-0.03l0.13,-0.014l0.312,2.863l-0.134,0.015l-0.292,0.031l-0.291,0.03l-0.292,0.029l-0.291,0.028l-0.292,0.027l-0.292,0.027l-0.292,0.025l-0.292,0.024l-0.292,0.024l-0.292,0.023l-0.292,0.021l-0.293,0.021l-0.292,0.02l-0.292,0.018l-0.293,0.018l-0.292,0.017l-0.293,0.016l-0.293,0.015l-0.292,0.014l-0.189,0.008ZM279.066,166.438l-0.055,-0.01l-0.293,-0.053l-0.292,-0.055l-0.293,-0.056l-0.292,-0.057l-0.292,-0.058l-0.292,-0.06l-0.292,-0.061l-0.293,-0.062l-0.291,-0.063l-0.292,-0.064l-0.292,-0.066l-0.292,-0.067l-0.291,-0.068l-0.292,-0.069l-0.291,-0.071l-0.292,-0.072l-0.291,-0.073l-0.29,-0.075l-0.355,-0.092l-0.111,-0.029l0.735,-2.785l0.105,0.028l0.344,0.089l0.28,0.071l0.28,0.071l0.28,0.069l0.279,0.068l0.28,0.066l0.28,0.066l0.28,0.064l0.281,0.063l0.28,0.062l0.28,0.061l0.281,0.059l0.28,0.059l0.281,0.057l0.281,0.056l0.281,0.055l0.281,0.053l0.281,0.053l0.281,0.051l0.05,0.009l-0.507,2.836ZM308.409,166.302l-0.481,-2.84l0.13,-0.022l0.281,-0.049l0.281,-0.049l0.281,-0.05l0.281,-0.051l0.28,-0.052l0.281,-0.052l0.28,-0.053l0.281,-0.054l0.28,-0.055l0.28,-0.056l0.28,-0.056l0.28,-0.057l0.28,-0.058l0.279,-0.059l0.28,-0.059l0.279,-0.06l0.28,-0.061l0.279,-0.062l0.279,-0.062l0.158,-0.036l0.636,2.81l-0.162,0.036l-0.286,0.064l-0.287,0.064l-0.287,0.062l-0.287,0.062l-0.287,0.061l-0.287,0.06l-0.287,0.06l-0.288,0.058l-0.288,0.058l-0.287,0.057l-0.288,0.057l-0.289,0.055l-0.288,0.055l-0.288,0.054l-0.289,0.053l-0.288,0.052l-0.289,0.052l-0.289,0.05l-0.289,0.05l-0.135,0.023ZM32.596,165.572l-0.322,-0.347l-0.45,-0.487l-0.448,-0.485l-0.444,-0.483l-0.442,-0.482l-0.438,-0.481l-0.436,-0.479l-0.433,-0.478l-0.43,-0.475l-0.087,-0.096l2.141,-1.928l0.084,0.094l0.427,0.472l0.43,0.474l0.433,0.476l0.435,0.477l0.439,0.478l0.441,0.48l0.444,0.482l0.447,0.483l0.32,0.346l-2.111,1.959ZM319.865,163.717l-0.776,-2.774l0.121,-0.034l0.276,-0.078l0.275,-0.079l0.276,-0.079l0.275,-0.08l0.276,-0.08l0.275,-0.082l0.275,-0.081l0.274,-0.083l0.275,-0.083l0.275,-0.084l0.274,-0.084l0.274,-0.085l0.274,-0.086l0.273,-0.086l0.274,-0.087l0.273,-0.088l0.273,-0.088l0.273,-0.088l0.273,-0.09l0.148,-0.049l0.903,2.736l-0.151,0.05l-0.279,0.091l-0.279,0.091l-0.279,0.09l-0.28,0.089l-0.279,0.089l-0.28,0.089l-0.28,0.087l-0.281,0.087l-0.28,0.086l-0.281,0.086l-0.281,0.085l-0.281,0.085l-0.282,0.083l-0.281,0.084l-0.282,0.082l-0.282,0.082l-0.282,0.081l-0.282,0.08l-0.283,0.08l-0.124,0.035ZM267.646,163.461l-0.034,-0.011l-0.326,-0.112l-0.325,-0.113l-0.323,-0.114l-0.321,-0.115l-0.32,-0.116l-0.319,-0.117l-0.316,-0.118l-0.316,-0.119l-0.313,-0.12l-0.312,-0.121l-0.311,-0.123l-0.308,-0.123l-0.308,-0.124l-0.305,-0.125l-0.305,-0.126l-0.302,-0.127l-0.301,-0.128l-0.156,-0.067l1.139,-2.646l0.15,0.065l0.289,0.122l0.291,0.122l0.292,0.121l0.293,0.121l0.295,0.119l0.297,0.118l0.298,0.117l0.3,0.117l0.302,0.115l0.303,0.115l0.305,0.113l0.306,0.113l0.308,0.112l0.309,0.11l0.311,0.11l0.313,0.109l0.314,0.108l0.028,0.009l-0.922,2.729ZM330.997,160.05l-1.017,-2.695l0.122,-0.046l0.268,-0.102l0.268,-0.102l0.267,-0.103l0.267,-0.104l0.267,-0.103l0.267,-0.105l0.267,-0.105l0.266,-0.105l0.265,-0.106l0.532,-0.213l0.53,-0.215l0.53,-0.217l0.528,-0.219l0.527,-0.221l0.16,-0.068l1.123,2.653l-0.165,0.069l-0.537,0.225l-0.538,0.224l-0.539,0.221l-0.541,0.219l-0.541,0.217l-0.272,0.109l-0.271,0.107l-0.272,0.107l-0.272,0.106l-0.272,0.106l-0.273,0.106l-0.273,0.104l-0.273,0.105l-0.273,0.104l-0.125,0.047ZM256.789,158.762l-0.205,-0.111l-0.268,-0.148l-0.267,-0.148l-0.266,-0.149l-0.264,-0.15l-0.263,-0.151l-0.261,-0.151l-0.26,-0.153l-0.258,-0.153l-0.256,-0.154l-0.255,-0.155l-0.254,-0.156l-0.252,-0.157l-0.251,-0.157l-0.249,-0.159l-0.247,-0.159l-0.246,-0.16l-0.245,-0.16l-0.243,-0.162l-0.242,-0.162l-0.03,-0.021l1.618,-2.383l0.024,0.017l0.23,0.154l0.231,0.153l0.232,0.153l0.234,0.152l0.235,0.151l0.237,0.15l0.238,0.15l0.24,0.149l0.242,0.148l0.242,0.148l0.245,0.147l0.246,0.146l0.247,0.145l0.249,0.145l0.25,0.144l0.252,0.143l0.253,0.142l0.255,0.141l0.257,0.141l0.198,0.107l-1.373,2.533ZM24.801,156.93l-0.187,-0.213l-0.397,-0.456l-0.395,-0.453l-0.391,-0.45l-0.388,-0.449l-0.386,-0.447l-0.382,-0.444l-0.379,-0.442l-0.376,-0.439l-0.373,-0.438l-0.149,-0.175l2.194,-1.866l0.148,0.174l0.371,0.434l0.373,0.436l0.376,0.439l0.38,0.441l0.382,0.443l0.386,0.446l0.388,0.447l0.392,0.45l0.395,0.452l0.185,0.211l-2.167,1.899ZM307.819,156.012l-2.88,-0.087l0.007,-0.22l0.007,-0.264l0.007,-0.265l0.005,-0.265l0.005,-0.265l0.005,-0.264l0.003,-0.265l0.003,-0.265l0.002,-0.265l0.001,-0.265l0,-0.265l0,-0.265l-0.001,-0.265l-0.002,-0.265l-0.003,-0.265l-0.003,-0.265l-0.004,-0.265l-0.005,-0.264l-0.006,-0.265l-0.006,-0.265l-0.008,-0.265l-0.005,-0.195l2.879,-0.085l0.006,0.198l0.007,0.273l0.007,0.273l0.006,0.273l0.005,0.273l0.004,0.273l0.004,0.273l0.002,0.274l0.002,0.273l0.001,0.273l0.001,0.273l-0.001,0.273l-0.001,0.273l-0.002,0.274l-0.002,0.273l-0.004,0.273l-0.004,0.273l-0.005,0.273l-0.006,0.274l-0.007,0.273l-0.008,0.273l-0.006,0.223ZM341.78,155.499l-1.217,-2.611l0.311,-0.145l0.513,-0.241l0.512,-0.242l0.511,-0.244l0.509,-0.246l0.508,-0.247l0.507,-0.248l0.505,-0.25l0.504,-0.251l0.503,-0.253l0.291,-0.147l1.301,2.57l-0.296,0.15l-0.51,0.256l-0.512,0.255l-0.514,0.254l-0.515,0.253l-0.517,0.251l-0.517,0.249l-0.52,0.249l-0.52,0.246l-0.522,0.246l-0.315,0.146ZM246.962,152.092l-0.167,-0.142l-0.207,-0.179l-0.207,-0.179l-0.205,-0.18l-0.203,-0.181l-0.202,-0.181l-0.201,-0.182l-0.199,-0.183l-0.198,-0.183l-0.196,-0.184l-0.195,-0.185l-0.193,-0.185l-0.192,-0.186l-0.191,-0.186l-0.189,-0.187l-0.187,-0.188l-0.187,-0.188l-0.184,-0.189l-0.184,-0.189l-0.182,-0.19l-0.18,-0.191l-0.18,-0.191l-0.084,-0.091l2.111,-1.959l0.08,0.085l0.168,0.18l0.17,0.179l0.172,0.179l0.172,0.178l0.174,0.178l0.176,0.177l0.176,0.177l0.178,0.176l0.18,0.175l0.181,0.175l0.182,0.175l0.184,0.174l0.185,0.173l0.186,0.173l0.188,0.173l0.189,0.171l0.191,0.172l0.192,0.17l0.193,0.17l0.195,0.17l0.197,0.169l0.16,0.137l-1.867,2.193ZM352.208,150.224l-1.377,-2.53l0.05,-0.027l0.485,-0.266l0.483,-0.267l0.482,-0.267l0.481,-0.269l0.479,-0.269l0.477,-0.271l0.475,-0.271l0.474,-0.271l0.473,-0.273l0.47,-0.273l0.182,-0.106l1.453,2.487l-0.185,0.108l-0.477,0.277l-0.479,0.277l-0.481,0.275l-0.482,0.275l-0.484,0.274l-0.486,0.274l-0.488,0.272l-0.489,0.272l-0.49,0.27l-0.493,0.27l-0.053,0.029ZM17.26,148.065l-0.007,-0.009l-0.335,-0.406l-0.332,-0.403l-0.328,-0.401l-0.326,-0.397l-0.322,-0.395l-0.318,-0.391l-0.316,-0.389l-0.312,-0.385l-0.308,-0.382l-0.306,-0.38l-0.302,-0.376l-0.162,-0.202l2.248,-1.801l0.161,0.201l0.3,0.373l0.303,0.376l0.306,0.38l0.31,0.382l0.313,0.386l0.316,0.388l0.32,0.392l0.323,0.395l0.326,0.397l0.329,0.4l0.333,0.403l0.006,0.008l-2.22,1.836ZM304.594,144.514l-0.016,-0.179l-0.025,-0.263l-0.026,-0.262l-0.026,-0.263l-0.027,-0.262l-0.027,-0.263l-0.029,-0.262l-0.029,-0.262l-0.03,-0.262l-0.03,-0.262l-0.031,-0.262l-0.032,-0.261l-0.033,-0.261l-0.033,-0.262l-0.034,-0.261l-0.035,-0.26l-0.036,-0.261l-0.036,-0.261l-0.037,-0.26l-0.037,-0.26l-0.039,-0.26l-0.038,-0.259l-0.001,-0.001l2.848,-0.436l0.001,0.005l0.04,0.268l0.039,0.267l0.039,0.268l0.038,0.268l0.037,0.269l0.037,0.268l0.036,0.269l0.035,0.268l0.034,0.27l0.034,0.269l0.033,0.269l0.032,0.27l0.031,0.269l0.031,0.27l0.03,0.27l0.029,0.27l0.029,0.27l0.027,0.271l0.027,0.27l0.027,0.271l0.025,0.271l0.017,0.183l-2.869,0.262ZM362.297,144.34l-1.522,-2.447l0.397,-0.247l0.448,-0.28l0.446,-0.28l0.444,-0.28l0.441,-0.281l0.441,-0.281l0.438,-0.281l0.436,-0.281l0.434,-0.281l0.432,-0.282l0.43,-0.281l0.07,-0.046l1.583,2.407l-0.072,0.047l-0.436,0.285l-0.438,0.285l-0.439,0.285l-0.442,0.285l-0.444,0.285l-0.445,0.284l-0.448,0.285l-0.449,0.284l-0.452,0.283l-0.453,0.284l-0.4,0.249ZM238.868,143.345l-0.014,-0.021l-0.145,-0.203l-0.143,-0.204l-0.141,-0.204l-0.14,-0.204l-0.139,-0.205l-0.138,-0.206l-0.136,-0.205l-0.135,-0.206l-0.133,-0.207l-0.132,-0.207l-0.131,-0.207l-0.13,-0.208l-0.128,-0.208l-0.126,-0.208l-0.126,-0.209l-0.124,-0.209l-0.122,-0.209l-0.122,-0.21l-0.12,-0.21l-0.119,-0.211l-0.117,-0.21l-0.116,-0.211l-0.115,-0.212l-0.113,-0.211l-0.047,-0.09l2.546,-1.346l0.044,0.082l0.106,0.198l0.107,0.198l0.109,0.197l0.109,0.197l0.111,0.197l0.113,0.196l0.113,0.196l0.115,0.196l0.116,0.196l0.117,0.195l0.119,0.195l0.119,0.194l0.121,0.195l0.123,0.193l0.123,0.194l0.125,0.193l0.127,0.193l0.127,0.193l0.129,0.192l0.13,0.192l0.131,0.192l0.133,0.191l0.134,0.191l0.135,0.19l0.01,0.014l-2.34,1.681ZM9.981,138.978l-0.358,-0.461l-0.491,-0.637l-0.477,-0.622l-0.463,-0.605l-0.449,-0.59l-0.435,-0.574l-0.42,-0.557l-0.405,-0.54l-0.034,-0.046l2.307,-1.724l0.032,0.043l0.402,0.535l0.417,0.552l0.43,0.569l0.445,0.585l0.459,0.6l0.474,0.617l0.487,0.631l0.355,0.459l-2.276,1.765ZM372.05,137.938l-1.638,-2.369l0.152,-0.106l0.403,-0.28l0.401,-0.28l0.399,-0.279l0.396,-0.279l0.394,-0.278l0.392,-0.278l0.39,-0.278l0.387,-0.277l0.385,-0.277l0.383,-0.276l0.381,-0.275l0.238,-0.174l1.694,2.33l-0.241,0.175l-0.385,0.279l-0.387,0.279l-0.389,0.28l-0.392,0.281l-0.394,0.28l-0.397,0.282l-0.399,0.282l-0.401,0.282l-0.403,0.282l-0.406,0.283l-0.407,0.284l-0.156,0.107ZM302.883,133.222l-0.007,-0.032l-0.054,-0.255l-0.056,-0.254l-0.056,-0.253l-0.056,-0.253l-0.058,-0.253l-0.058,-0.253l-0.058,-0.252l-0.06,-0.252l-0.06,-0.252l-0.06,-0.252l-0.062,-0.251l-0.062,-0.25l-0.062,-0.251l-0.063,-0.25l-0.064,-0.25l-0.065,-0.249l-0.065,-0.249l-0.066,-0.249l-0.067,-0.249l-0.067,-0.248l-0.067,-0.247l-0.067,-0.242l2.776,-0.769l0.068,0.246l0.07,0.256l0.069,0.256l0.069,0.256l0.068,0.256l0.067,0.257l0.066,0.257l0.066,0.258l0.066,0.258l0.064,0.258l0.064,0.258l0.063,0.259l0.063,0.259l0.061,0.26l0.062,0.26l0.06,0.26l0.06,0.26l0.059,0.261l0.058,0.261l0.058,0.261l0.057,0.262l0.056,0.261l0.008,0.037l-2.818,0.598ZM233.284,132.776l-0.01,-0.028l-0.079,-0.218l-0.077,-0.218l-0.076,-0.218l-0.074,-0.219l-0.074,-0.218l-0.072,-0.219l-0.07,-0.218l-0.07,-0.219l-0.068,-0.219l-0.067,-0.219l-0.066,-0.219l-0.065,-0.219l-0.063,-0.22l-0.062,-0.219l-0.061,-0.219l-0.06,-0.22l-0.058,-0.22l-0.057,-0.219l-0.056,-0.22l-0.055,-0.22l-0.053,-0.22l-0.052,-0.22l-0.051,-0.22l-0.05,-0.22l-0.049,-0.22l-0.047,-0.22l-0.009,-0.042l2.82,-0.591l0.007,0.034l0.044,0.206l0.045,0.205l0.047,0.205l0.047,0.205l0.049,0.205l0.05,0.205l0.051,0.205l0.052,0.205l0.053,0.205l0.055,0.205l0.055,0.204l0.057,0.205l0.058,0.205l0.059,0.204l0.06,0.205l0.061,0.204l0.063,0.204l0.064,0.205l0.065,0.204l0.066,0.204l0.067,0.204l0.068,0.203l0.07,0.204l0.071,0.203l0.071,0.204l0.074,0.203l0.007,0.021l-2.705,0.99ZM381.484,131.078l-1.747,-2.29l0.212,-0.162l0.344,-0.263l0.341,-0.263l0.339,-0.261l0.336,-0.26l0.334,-0.259l0.331,-0.258l0.328,-0.257l0.326,-0.255l0.323,-0.254l0.32,-0.253l0.318,-0.252l0.315,-0.251l0.312,-0.249l0.065,-0.052l1.8,2.25l-0.067,0.053l-0.316,0.252l-0.319,0.253l-0.321,0.255l-0.324,0.256l-0.327,0.257l-0.329,0.258l-0.332,0.26l-0.335,0.261l-0.337,0.262l-0.34,0.263l-0.343,0.264l-0.345,0.265l-0.347,0.266l-0.215,0.164ZM390.593,123.797l-1.847,-2.21l0.086,-0.072l0.525,-0.442l0.513,-0.434l0.501,-0.426l0.489,-0.417l0.477,-0.41l0.464,-0.401l0.452,-0.393l0.439,-0.383l0.427,-0.376l1.901,2.165l-0.43,0.378l-0.445,0.388l-0.457,0.398l-0.47,0.406l-0.483,0.415l-0.495,0.423l-0.507,0.431l-0.519,0.439l-0.531,0.446l-0.09,0.075ZM299.822,122.231l-0.05,-0.141l-0.083,-0.237l-0.084,-0.237l-0.085,-0.237l-0.085,-0.236l-0.086,-0.236l-0.087,-0.235l-0.087,-0.235l-0.088,-0.234l-0.088,-0.234l-0.089,-0.233l-0.089,-0.233l-0.09,-0.232l-0.091,-0.232l-0.092,-0.231l-0.092,-0.231l-0.092,-0.231l-0.093,-0.229l-0.094,-0.23l-0.094,-0.228l-0.095,-0.229l-0.095,-0.227l-0.096,-0.227l-0.027,-0.063l2.65,-1.13l0.028,0.067l0.1,0.235l0.098,0.236l0.099,0.236l0.097,0.237l0.097,0.237l0.096,0.238l0.096,0.238l0.095,0.239l0.095,0.239l0.094,0.24l0.093,0.24l0.092,0.241l0.092,0.241l0.092,0.242l0.09,0.242l0.09,0.242l0.09,0.243l0.089,0.244l0.088,0.244l0.087,0.244l0.087,0.245l0.087,0.246l0.05,0.145l-2.72,0.947ZM230.811,121.065l-0.011,-0.17l-0.013,-0.218l-0.012,-0.219l-0.011,-0.218l-0.009,-0.218l-0.009,-0.218l-0.007,-0.218l-0.006,-0.218l-0.005,-0.218l-0.004,-0.217l-0.003,-0.218l-0.002,-0.217l0,-0.217l0,-0.216l0.002,-0.217l0.003,-0.216l0.003,-0.216l0.005,-0.216l0.007,-0.216l0.007,-0.216l0.008,-0.215l0.01,-0.215l0.01,-0.215l0.012,-0.215l0.013,-0.214l0.014,-0.214l0.015,-0.214l0.014,-0.197l2.873,0.216l-0.014,0.19l-0.014,0.199l-0.013,0.199l-0.012,0.199l-0.011,0.2l-0.01,0.2l-0.009,0.2l-0.007,0.201l-0.007,0.2l-0.006,0.201l-0.004,0.201l-0.004,0.201l-0.003,0.202l-0.001,0.201l-0.001,0.202l0.001,0.202l0.001,0.202l0.003,0.203l0.004,0.202l0.004,0.203l0.006,0.203l0.007,0.203l0.008,0.203l0.009,0.203l0.01,0.204l0.011,0.203l0.012,0.204l0.011,0.162l-2.875,0.187ZM295.353,111.757l-0.034,-0.065l-0.11,-0.212l-0.111,-0.212l-0.111,-0.212l-0.112,-0.21l-0.112,-0.211l-0.113,-0.209l-0.114,-0.209l-0.114,-0.208l-0.114,-0.208l-0.116,-0.207l-0.115,-0.206l-0.116,-0.206l-0.117,-0.204l-0.117,-0.205l-0.118,-0.203l-0.119,-0.203l-0.118,-0.202l-0.12,-0.202l-0.12,-0.201l-0.12,-0.2l-0.121,-0.199l-0.122,-0.199l-0.122,-0.198l-0.094,-0.152l2.447,-1.52l0.097,0.157l0.128,0.206l0.126,0.208l0.127,0.208l0.125,0.208l0.125,0.21l0.125,0.21l0.123,0.21l0.124,0.212l0.122,0.212l0.122,0.212l0.122,0.214l0.121,0.214l0.12,0.214l0.12,0.216l0.119,0.216l0.119,0.216l0.118,0.218l0.118,0.217l0.116,0.219l0.117,0.219l0.115,0.22l0.116,0.22l0.114,0.221l0.036,0.069l-2.562,1.317ZM234.552,109.772l-2.807,-0.645l0.031,-0.136l0.048,-0.204l0.049,-0.203l0.05,-0.203l0.051,-0.202l0.052,-0.202l0.053,-0.202l0.054,-0.201l0.055,-0.2l0.056,-0.201l0.057,-0.199l0.058,-0.2l0.059,-0.198l0.06,-0.199l0.061,-0.198l0.062,-0.197l0.064,-0.197l0.064,-0.196l0.065,-0.196l0.066,-0.196l0.067,-0.195l0.068,-0.194l0.069,-0.194l0.07,-0.193l0.071,-0.193l0.072,-0.193l0.073,-0.192l0.074,-0.191l0.075,-0.19l0.031,-0.079l2.676,1.068l-0.029,0.072l-0.069,0.176l-0.068,0.177l-0.068,0.177l-0.066,0.178l-0.066,0.178l-0.065,0.179l-0.064,0.179l-0.063,0.18l-0.062,0.18l-0.061,0.181l-0.06,0.182l-0.06,0.182l-0.058,0.182l-0.057,0.183l-0.057,0.183l-0.056,0.184l-0.055,0.184l-0.053,0.185l-0.053,0.185l-0.052,0.185l-0.051,0.186l-0.05,0.187l-0.05,0.186l-0.048,0.188l-0.047,0.187l-0.046,0.189l-0.046,0.188l-0.044,0.189l-0.03,0.129ZM289.348,102.144l-0.05,-0.067l-0.136,-0.177l-0.136,-0.177l-0.136,-0.176l-0.137,-0.175l-0.137,-0.174l-0.138,-0.174l-0.139,-0.173l-0.138,-0.172l-0.14,-0.171l-0.139,-0.17l-0.141,-0.169l-0.14,-0.169l-0.141,-0.167l-0.142,-0.167l-0.142,-0.166l-0.143,-0.165l-0.142,-0.164l-0.144,-0.164l-0.144,-0.162l-0.144,-0.162l-0.145,-0.161l-0.145,-0.159l-0.146,-0.159l-0.146,-0.159l-0.146,-0.157l-0.057,-0.06l2.098,-1.974l0.061,0.065l0.156,0.167l0.154,0.167l0.154,0.168l0.154,0.169l0.153,0.17l0.152,0.171l0.152,0.171l0.151,0.173l0.151,0.173l0.151,0.174l0.149,0.175l0.15,0.176l0.148,0.177l0.149,0.177l0.147,0.179l0.147,0.179l0.147,0.18l0.146,0.181l0.146,0.181l0.145,0.183l0.144,0.183l0.144,0.184l0.143,0.185l0.143,0.186l0.143,0.186l0.053,0.071l-2.297,1.739ZM238.676,99.479l-2.461,-1.498l0.081,-0.134l0.105,-0.171l0.107,-0.169l0.107,-0.17l0.107,-0.168l0.109,-0.168l0.11,-0.167l0.111,-0.166l0.111,-0.165l0.112,-0.165l0.114,-0.164l0.114,-0.163l0.115,-0.163l0.116,-0.161l0.117,-0.161l0.118,-0.16l0.118,-0.16l0.12,-0.158l0.12,-0.158l0.121,-0.157l0.123,-0.156l0.123,-0.155l0.123,-0.155l0.125,-0.153l0.126,-0.153l0.126,-0.152l0.128,-0.151l0.128,-0.151l0.129,-0.149l0.13,-0.149l0.089,-0.1l2.156,1.91l-0.083,0.094l-0.118,0.135l-0.117,0.136l-0.117,0.137l-0.116,0.138l-0.115,0.138l-0.115,0.139l-0.114,0.14l-0.113,0.141l-0.112,0.142l-0.112,0.143l-0.11,0.143l-0.11,0.144l-0.109,0.145l-0.109,0.145l-0.107,0.146l-0.107,0.148l-0.106,0.147l-0.106,0.149l-0.104,0.149l-0.104,0.15l-0.103,0.151l-0.102,0.152l-0.101,0.152l-0.101,0.153l-0.099,0.154l-0.099,0.154l-0.098,0.155l-0.098,0.156l-0.096,0.157l-0.077,0.127ZM281.63,93.974l-0.137,-0.113l-0.159,-0.13l-0.159,-0.129l-0.16,-0.128l-0.16,-0.127l-0.16,-0.126l-0.161,-0.125l-0.161,-0.124l-0.161,-0.123l-0.162,-0.122l-0.163,-0.121l-0.162,-0.119l-0.163,-0.119l-0.164,-0.118l-0.164,-0.117l-0.164,-0.116l-0.165,-0.115l-0.165,-0.113l-0.165,-0.113l-0.166,-0.112l-0.166,-0.11l-0.166,-0.11l-0.167,-0.108l-0.167,-0.108l-0.168,-0.106l-0.168,-0.105l-0.168,-0.105l-0.153,-0.093l1.503,-2.458l0.16,0.098l0.182,0.113l0.181,0.114l0.181,0.114l0.18,0.116l0.181,0.117l0.179,0.119l0.179,0.119l0.179,0.12l0.178,0.121l0.178,0.123l0.177,0.123l0.176,0.125l0.177,0.126l0.175,0.126l0.176,0.128l0.174,0.129l0.175,0.13l0.173,0.131l0.174,0.131l0.173,0.133l0.172,0.134l0.172,0.135l0.171,0.136l0.171,0.137l0.17,0.138l0.17,0.139l0.142,0.118l-1.835,2.22ZM245.993,91.281l-1.737,-2.299l0.053,-0.04l0.157,-0.117l0.158,-0.116l0.159,-0.115l0.16,-0.114l0.16,-0.112l0.161,-0.112l0.162,-0.111l0.162,-0.109l0.164,-0.109l0.164,-0.107l0.165,-0.107l0.166,-0.105l0.166,-0.104l0.167,-0.103l0.168,-0.102l0.169,-0.1l0.169,-0.1l0.171,-0.098l0.171,-0.098l0.171,-0.096l0.173,-0.095l0.173,-0.094l0.174,-0.092l0.174,-0.092l0.176,-0.09l0.176,-0.089l0.177,-0.088l0.177,-0.087l0.178,-0.085l0.179,-0.084l0.13,-0.06l1.209,2.615l-0.121,0.055l-0.16,0.076l-0.16,0.077l-0.159,0.077l-0.159,0.079l-0.158,0.08l-0.157,0.081l-0.157,0.082l-0.156,0.083l-0.155,0.084l-0.155,0.086l-0.154,0.086l-0.154,0.087l-0.153,0.089l-0.152,0.089l-0.152,0.091l-0.151,0.091l-0.15,0.093l-0.15,0.093l-0.149,0.095l-0.148,0.096l-0.148,0.096l-0.147,0.098l-0.146,0.099l-0.146,0.099l-0.145,0.101l-0.144,0.101l-0.144,0.103l-0.143,0.104l-0.142,0.104l-0.142,0.106l-0.045,0.034ZM272.127,88.236l-0.102,-0.04l-0.18,-0.07l-0.179,-0.069l-0.18,-0.067l-0.18,-0.066l-0.18,-0.065l-0.181,-0.064l-0.181,-0.063l-0.182,-0.062l-0.181,-0.06l-0.182,-0.059l-0.183,-0.058l-0.183,-0.057l-0.183,-0.055l-0.183,-0.055l-0.184,-0.053l-0.184,-0.052l-0.184,-0.051l-0.185,-0.05l-0.185,-0.048l-0.185,-0.047l-0.186,-0.046l-0.186,-0.045l-0.186,-0.043l-0.187,-0.043l-0.187,-0.041l-0.187,-0.039l-0.188,-0.039l-0.188,-0.037l-0.054,-0.011l0.542,-2.829l0.065,0.012l0.206,0.041l0.207,0.043l0.206,0.044l0.206,0.045l0.205,0.046l0.205,0.048l0.204,0.049l0.204,0.051l0.204,0.052l0.203,0.053l0.203,0.054l0.203,0.056l0.202,0.057l0.201,0.059l0.202,0.059l0.201,0.061l0.2,0.063l0.2,0.063l0.2,0.065l0.199,0.066l0.199,0.068l0.198,0.069l0.198,0.07l0.198,0.071l0.197,0.072l0.197,0.074l0.196,0.075l0.196,0.076l0.111,0.044l-1.062,2.678ZM255.881,86.74l-0.599,-2.818l0.161,-0.034l0.201,-0.041l0.202,-0.04l0.202,-0.038l0.202,-0.037l0.204,-0.036l0.204,-0.034l0.204,-0.033l0.205,-0.031l0.206,-0.03l0.206,-0.028l0.207,-0.027l0.207,-0.025l0.208,-0.024l0.209,-0.023l0.209,-0.021l0.21,-0.02l0.21,-0.018l0.211,-0.016l0.211,-0.016l0.212,-0.013l0.212,-0.013l0.213,-0.01l0.214,-0.009l0.214,-0.008l0.214,-0.006l0.216,-0.005l0.215,-0.003l0.216,-0.002l0.05,0l0.001,2.881l-0.04,0l-0.195,0.002l-0.195,0.002l-0.195,0.005l-0.194,0.005l-0.194,0.007l-0.193,0.008l-0.192,0.01l-0.192,0.011l-0.191,0.012l-0.191,0.014l-0.19,0.015l-0.189,0.016l-0.189,0.018l-0.189,0.019l-0.188,0.02l-0.187,0.022l-0.187,0.023l-0.186,0.024l-0.185,0.026l-0.185,0.027l-0.185,0.028l-0.184,0.029l-0.183,0.031l-0.183,0.032l-0.182,0.033l-0.181,0.034l-0.181,0.036l-0.181,0.037l-0.15,0.032Z" style="fill:#00a99d;"/><path d="M2.965,129.577l-0.2,-0.28l-0.188,-0.265l-0.176,-0.248l-0.162,-0.232l-0.15,-0.214l-0.137,-0.197l-0.124,-0.18l-0.112,-0.163l-0.183,-0.269l-0.132,-0.196l-0.081,-0.121l-0.027,-0.042l2.404,-1.587l0.024,0.037l0.073,0.109l0.124,0.185l0.176,0.258l0.107,0.155l0.119,0.174l0.133,0.19l0.145,0.208l0.158,0.225l0.171,0.242l0.184,0.259l0.197,0.276l-2.343,1.676Z" style="fill:#00a99d;"/></g></svg>